# Blender v2.78 (sub 0) OBJ File: 'cube.blend'
# www.blender.org
mtllib cube.mtl
o Cube
v 0.120877 0.374699 -0.180249
v 0.120877 -0.069407 -0.409965
v -0.332248 -0.166518 -0.222222
v -0.332248 0.277588 0.007494
v 0.332248 0.166518 0.222222
v 0.332248 -0.277588 -0.007494
v -0.120877 -0.374699 0.180249
v -0.120877 0.069407 0.409965
vn -0.4227 0.4164 -0.8049
vn 0.9062 0.1942 -0.3755
vn -0.0000 -0.8882 -0.4594
vn 0.0000 0.8882 0.4594
vn 0.4227 -0.4164 0.8049
vn -0.9062 -0.1942 0.3755
usemtl Material
s off
f 1//1 3//1 4//1
f 5//2 2//2 1//2
f 6//3 3//3 2//3
f 1//1 2//1 3//1
f 5//2 6//2 2//2
f 6//3 7//3 3//3
usemtl faceUp
f 1//4 8//4 5//4
f 1//4 4//4 8//4
usemtl faceRight
f 8//5 6//5 5//5
f 8//5 7//5 6//5
usemtl FaceLeft
f 7//6 4//6 3//6
f 7//6 8//6 4//6
