# Blender v2.79 (sub 0) OBJ File: 'jm2.blend'
# www.blender.org
mtllib JM2.mtl
o Cube
v 1.000000 0.000000 -1.000000
v 1.000000 0.000000 1.000000
v -1.000000 0.000000 1.000000
v -1.000000 0.000000 -1.000000
v 1.000000 2.000000 -0.999999
v 0.999999 2.000000 1.000001
v -1.000000 2.000000 1.000000
v -1.000000 2.000000 -1.000000
vt 0.595536 -0.014283
vt 0.624642 0.435882
vt 0.929525 0.250500
vt 0.622083 0.797914
vt 0.581143 0.448917
vt 1.004920 0.665947
vt 0.303865 0.264725
vt 0.220250 0.672001
vn 0.0000 -1.0000 0.0000
vn 0.0000 1.0000 0.0000
vn 1.0000 -0.0000 0.0000
vn 0.0000 -0.0000 1.0000
vn -1.0000 -0.0000 -0.0000
vn 0.0000 0.0000 -1.0000
usemtl Material
s off
f 2/1/1 4/2/1 1/3/1
f 8/4/2 6/5/2 5/6/2
f 5/6/3 2/1/3 1/3/3
f 6/5/4 3/7/4 2/1/4
f 3/7/5 8/4/5 4/2/5
f 1/3/6 8/4/6 5/6/6
f 2/1/1 3/7/1 4/2/1
f 8/4/2 7/8/2 6/5/2
f 5/6/3 6/5/3 2/1/3
f 6/5/4 7/8/4 3/7/4
f 3/7/5 7/8/5 8/4/5
f 1/3/6 4/2/6 8/4/6
