# Blender v2.79 (sub 0) OBJ File: 'jm_marked.blend'
# www.blender.org
mtllib JM3.mtl
o Cube
v 1.000000 0.000000 -1.000000
v 1.000000 0.000000 1.000000
v -1.000000 0.000000 1.000000
v -1.000000 0.000000 -1.000000
v 1.000000 2.000000 -0.999999
v 0.999999 2.000000 1.000001
v -1.000000 2.000000 1.000000
v -1.000000 2.000000 -1.000000
vt 0.646798 0.517873
vt 0.453722 0.326963
vt 0.645714 0.325880
vt 0.452639 0.134971
vt 0.643548 -0.058105
vt 0.644631 0.133888
vt 0.839874 0.708782
vt 0.838790 0.516789
vt 0.647881 0.709865
vt 0.454805 0.518956
vt 0.263896 0.712032
vt 0.262813 0.520039
vt 0.451555 -0.057021
vt 0.455889 0.710949
vn 0.0000 -1.0000 0.0000
vn 0.0000 1.0000 0.0000
vn 1.0000 -0.0000 0.0000
vn 0.0000 -0.0000 1.0000
vn -1.0000 -0.0000 -0.0000
vn 0.0000 0.0000 -1.0000
usemtl Material
s off
f 2/1/1 4/2/1 1/3/1
f 8/4/2 6/5/2 5/6/2
f 5/7/3 2/1/3 1/8/3
f 6/9/4 3/10/4 2/1/4
f 3/10/5 8/11/5 4/12/5
f 1/3/6 8/4/6 5/6/6
f 2/1/1 3/10/1 4/2/1
f 8/4/2 7/13/2 6/5/2
f 5/7/3 6/9/3 2/1/3
f 6/9/4 7/14/4 3/10/4
f 3/10/5 7/14/5 8/11/5
f 1/3/6 4/2/6 8/4/6
