# Blender v2.79 (sub 0) OBJ File: ''
# www.blender.org
mtllib test_tree.mtl
o Cube.001
v -7.703566 7.232574 2.341213
v -5.277388 11.237417 2.341213
v -7.703567 7.232574 -2.341213
v -5.277388 11.237417 -2.341213
v -3.698722 4.806396 2.341213
v -1.272544 8.811239 2.341213
v -3.698723 4.806396 -2.341213
v -1.272544 8.811239 -2.341213
v 1.000000 0.000002 -1.000000
v 1.000000 0.000002 1.000000
v -1.000000 0.000001 1.000000
v -1.000000 0.000001 -1.000000
v 1.000000 6.541485 -1.000000
v 0.999999 6.541485 1.000001
v -1.000000 6.541485 1.000000
v -1.000000 6.541485 -1.000000
v 1.000001 9.556419 -1.000000
v 1.000000 9.556419 1.000001
v -1.000000 9.556419 -1.000000
v -1.000000 9.556419 1.000000
v -5.655976 6.541484 0.999999
v -5.655975 6.541484 -1.000001
v -5.655974 9.556417 0.999999
v -5.655974 9.556418 -1.000001
v 6.342922 6.541487 -0.999996
v 6.342922 6.541487 1.000004
v 6.342923 9.556421 -0.999996
v 6.342923 9.556421 1.000004
vn -0.8553 0.5181 0.0000
vn -0.0000 0.0000 -1.0000
vn 0.8553 -0.5181 -0.0000
vn 0.0000 -0.0000 1.0000
vn -0.5181 -0.8553 0.0000
vn 0.5181 0.8553 -0.0000
vn 0.0000 -1.0000 0.0000
vn 1.0000 -0.0000 0.0000
vn -1.0000 -0.0000 -0.0000
vn 0.0000 1.0000 -0.0000
usemtl Material
s off
f 2//1 3//1 1//1
f 4//2 7//2 3//2
f 8//3 5//3 7//3
f 6//4 1//4 5//4
f 7//5 1//5 3//5
f 4//6 6//6 8//6
f 10//7 12//7 9//7
f 14//4 20//4 15//4
f 13//8 10//8 9//8
f 10//4 15//4 11//4
f 11//9 16//9 12//9
f 9//2 16//2 13//2
f 19//10 18//10 17//10
f 14//4 28//4 18//4
f 16//2 24//2 19//2
f 13//2 19//2 17//2
f 21//9 24//9 22//9
f 15//4 23//4 21//4
f 20//10 24//10 23//10
f 15//7 22//7 16//7
f 26//8 27//8 28//8
f 18//10 27//10 17//10
f 13//7 26//7 14//7
f 17//2 25//2 13//2
f 2//1 4//1 3//1
f 4//2 8//2 7//2
f 8//3 6//3 5//3
f 6//4 2//4 1//4
f 7//5 5//5 1//5
f 4//6 2//6 6//6
f 10//7 11//7 12//7
f 14//4 18//4 20//4
f 13//8 14//8 10//8
f 10//4 14//4 15//4
f 11//9 15//9 16//9
f 9//2 12//2 16//2
f 19//10 20//10 18//10
f 14//4 26//4 28//4
f 16//2 22//2 24//2
f 13//2 16//2 19//2
f 21//9 23//9 24//9
f 15//4 20//4 23//4
f 20//10 19//10 24//10
f 15//7 21//7 22//7
f 26//8 25//8 27//8
f 18//10 28//10 27//10
f 13//7 25//7 26//7
f 17//2 27//2 25//2
