# Blender v2.80 (sub 75) OBJ File: 'tree.blend'
# www.blender.org
mtllib tree_with_transp_leafs.mtl
o Cube.002_Cube.008
v -1.211169 5.099596 0.805983
v -1.924263 5.708690 0.805983
v -1.924263 5.164527 -0.208603
v -1.809095 5.407725 0.027319
v -0.316749 5.144914 0.805983
v 0.075737 5.407725 0.805983
v -0.410387 4.838266 -0.669912
v 0.075737 5.407725 -0.867336
v -2.480492 5.781447 1.039844
v -1.167489 7.423107 0.885910
v -2.480492 5.781447 -2.517753
v -1.927726 6.968942 -0.598878
v 1.755007 5.781447 1.039844
v 1.736287 6.604894 1.039844
v 1.195086 5.781447 -2.143448
v 1.263396 6.935569 -1.065712
v -2.019407 5.465358 1.137237
v -2.829954 5.854913 1.527920
v -2.019407 5.465358 -1.282627
v -2.829954 5.854913 -2.093174
v -0.019407 5.465358 0.717373
v 2.210541 5.854913 1.527920
v 1.382811 5.403179 -0.934407
v 2.593392 6.712285 -1.052163
v -0.103157 5.006428 -0.089025
v -0.638907 5.377525 1.000000
v -0.179731 4.880945 -0.580084
v -0.643467 5.377525 -1.000000
v 0.737075 5.127978 0.138001
v 0.720196 5.534397 1.000000
v 0.767047 5.150645 -0.580083
v 0.892462 5.786396 -1.000000
v 1.093381 3.707028 0.232415
v 0.980073 4.189873 0.150470
v 1.238368 3.752601 -0.445785
v 1.237276 4.379873 -0.338954
v 1.724049 3.491972 0.329429
v 1.840681 4.094873 0.232415
v 1.590432 3.596460 -0.389018
v 1.803774 4.274318 -0.629198
v 1.209818 3.875351 0.307345
v 1.183385 4.572375 0.362346
v 1.292590 3.920924 -0.228586
v 1.559270 4.850046 -0.352913
v 1.778277 3.670678 0.210994
v 2.441104 4.433539 0.482103
v 1.965933 3.975219 -0.478556
v 2.204376 4.695785 -0.489053
v 1.452420 3.415634 0.522505
v 1.410802 3.898479 0.522505
v 1.478461 3.415634 -0.229507
v 1.410802 4.088479 -0.229507
v 1.852752 3.415634 0.290473
v 2.199720 3.803479 0.522505
v 1.949471 3.305066 -0.098928
v 2.162813 3.982924 -0.229507
v 0.315406 0.000000 -0.408630
v 0.315406 0.000000 0.408630
v -0.501855 0.000000 0.408630
v -0.501855 0.000000 -0.408631
v 0.170595 2.464232 -0.368231
v 0.198926 2.464232 0.272613
v -0.319506 2.473224 0.316196
v -0.264858 2.473224 -0.274399
v 0.109427 2.931795 -0.230158
v 0.204988 2.931795 0.316197
v -0.334492 3.215779 0.316196
v -0.334491 3.215779 -0.316197
v 0.669894 2.795712 -0.090462
v 0.630281 2.795712 0.265102
v 0.659783 3.060227 -0.091589
v 0.620170 3.060227 0.263975
v 1.423092 2.915989 0.012254
v 1.423092 2.915989 0.282661
v 1.384182 3.140892 0.087536
v 1.384182 3.140892 0.282661
v 1.729528 3.125063 -0.000976
v 1.770120 3.125063 0.266367
v 1.521343 3.293284 0.030634
v 1.561935 3.293283 0.297976
v 1.741571 3.457828 0.035953
v 1.778678 3.457827 0.223135
v 1.564642 3.497418 0.067954
v 1.568639 3.497417 0.296959
v 0.227677 3.910572 -0.243933
v 0.176474 3.737476 0.316197
v -0.161944 3.819906 0.316197
v -0.161944 3.819906 -0.338911
v -0.851953 4.390755 0.155078
v -0.851953 4.390755 -0.155078
v -0.524909 4.549400 0.155078
v -0.524909 4.549400 -0.155078
v -1.125043 4.957032 0.145009
v -1.125043 4.957032 -0.145009
v -0.726375 4.876037 0.145009
v -0.726375 4.876037 -0.145009
v -0.395598 5.149862 0.409722
v -0.330243 5.149862 0.189198
v -0.618647 5.156002 0.315101
v -0.561591 5.156002 0.017835
v -1.227743 5.177900 0.004757
v -1.227742 5.177900 -0.230240
v -1.002488 5.192167 0.004757
v -1.002488 5.192167 -0.230240
v 0.316975 4.748590 -0.412436
v 0.224127 4.748590 0.013714
v 0.023501 4.680299 0.063902
v 0.023501 4.680299 -0.412436
v 0.299691 5.329297 -0.477942
v 0.365840 5.329297 -0.150734
v 0.088263 5.261005 -0.137937
v 0.025736 5.261005 -0.372699
vn -0.7305 -0.6018 0.3228
vn -0.3310 0.2875 -0.8988
vn 0.6927 -0.7195 0.0495
vn -0.0000 0.0000 1.0000
vn -0.0912 -0.9879 0.1254
vn 0.0493 0.9916 -0.1194
vn -0.8549 0.5122 0.0828
vn -0.0045 0.7884 -0.6151
vn 0.9794 0.0771 -0.1864
vn -0.0136 0.0694 0.9975
vn 0.0000 -1.0000 0.0000
vn 0.1339 0.9878 -0.0800
vn -0.4332 -0.9013 0.0000
vn 0.1784 -0.5039 -0.8451
vn 0.4399 -0.8979 0.0168
vn 0.0309 -0.8549 0.5180
vn -0.0114 -0.9999 0.0114
vn -0.0939 0.9870 0.1307
vn -0.6314 -0.7732 0.0595
vn 0.1528 -0.5589 -0.8151
vn 0.9898 -0.1288 0.0606
vn 0.0763 -0.9186 0.3877
vn 0.2042 -0.9761 0.0751
vn -0.1915 0.9800 0.0537
vn -0.9361 -0.0888 -0.3404
vn -0.2609 -0.0560 -0.9637
vn 0.9465 -0.2842 -0.1532
vn -0.0842 0.1623 0.9831
vn -0.3373 -0.9357 -0.1033
vn 0.1742 0.9422 0.2861
vn -0.9415 0.1258 -0.3126
vn -0.2805 0.0075 -0.9598
vn 0.8535 -0.4850 -0.1907
vn -0.0496 -0.1971 0.9791
vn -0.1989 -0.9298 -0.3095
vn 0.1472 0.9384 0.3126
vn -0.9951 -0.0941 -0.0291
vn 0.0872 -0.1052 -0.9906
vn 0.8843 -0.4666 0.0182
vn 0.1587 -0.3058 0.9388
vn -0.1159 -0.9898 0.0834
vn 0.1255 0.9642 0.2338
vn 0.0313 -0.0357 0.9989
vn 0.9984 0.0526 -0.0194
vn 0.0329 0.0458 0.9984
vn -0.9957 0.0847 -0.0386
vn -0.0744 0.0366 -0.9966
vn 0.2829 0.2029 -0.9374
vn -0.9973 -0.0581 -0.0446
vn 0.0182 0.0813 -0.9965
vn 0.1633 0.1638 -0.9729
vn 0.1011 -0.0570 0.9932
vn -0.2584 0.9659 0.0160
vn 0.5789 -0.8154 0.0066
vn -0.6900 0.7212 0.0606
vn -0.1067 0.9943 -0.0077
vn -0.0233 -0.0000 0.9997
vn 0.1530 -0.9882 0.0097
vn 0.2769 0.0711 0.9583
vn 0.0399 -0.0552 0.9977
vn 0.5372 -0.8424 -0.0406
vn -0.2420 0.1100 -0.9640
vn 0.1954 0.9805 -0.0193
vn 0.9852 -0.0321 -0.1684
vn -0.0846 0.1450 -0.9858
vn -0.9896 0.1133 0.0889
vn 0.0963 0.2718 0.9575
vn 0.9976 -0.0505 -0.0479
vn -0.9152 -0.4030 -0.0000
vn 0.1987 -0.0591 -0.9783
vn -0.0023 0.0213 0.9998
vn -0.1847 0.0918 -0.9785
vn -0.1490 0.0976 0.9840
vn 0.8953 0.4455 0.0000
vn -0.0347 -0.3245 -0.9452
vn -0.9007 -0.4344 -0.0000
vn -0.0023 0.0213 -0.9998
vn -0.8751 0.4764 -0.0850
vn 0.0237 0.9997 0.0056
vn 0.9429 -0.3123 0.1161
vn -0.4385 -0.2920 0.8500
vn 0.5086 0.2643 -0.8194
vn -0.0632 0.9980 -0.0000
vn 0.7532 0.6578 0.0000
vn 0.0525 0.4912 0.8694
vn -0.9068 -0.4216 -0.0000
vn -0.9937 0.0695 0.0874
vn 0.9897 -0.0382 0.1378
vn -0.9776 0.2107 -0.0000
vn 0.1737 -0.1664 -0.9706
vn -0.2294 0.9719 0.0525
vn -0.1767 -0.0241 -0.9840
vn 0.0419 0.2937 0.9550
vn 0.9944 -0.0996 0.0352
usemtl leaf
s off
f 1//1 2//1 4//1 3//1
f 3//2 4//2 8//2 7//2
f 7//3 8//3 6//3 5//3
f 5//4 6//4 2//4 1//4
f 3//5 7//5 5//5 1//5
f 8//6 4//6 2//6 6//6
f 9//7 10//7 12//7 11//7
f 11//8 12//8 16//8 15//8
f 15//9 16//9 14//9 13//9
f 13//10 14//10 10//10 9//10
f 11//11 15//11 13//11 9//11
f 16//12 12//12 10//12 14//12
f 17//13 18//13 20//13 19//13
f 19//14 20//14 24//14 23//14
f 23//15 24//15 22//15 21//15
f 21//16 22//16 18//16 17//16
f 19//17 23//17 21//17 17//17
f 24//18 20//18 18//18 22//18
f 25//19 26//19 28//19 27//19
f 27//20 28//20 32//20 31//20
f 31//21 32//21 30//21 29//21
f 29//22 30//22 26//22 25//22
f 27//23 31//23 29//23 25//23
f 32//24 28//24 26//24 30//24
f 33//25 34//25 36//25 35//25
f 35//26 36//26 40//26 39//26
f 39//27 40//27 38//27 37//27
f 37//28 38//28 34//28 33//28
f 35//29 39//29 37//29 33//29
f 40//30 36//30 34//30 38//30
f 41//31 42//31 44//31 43//31
f 43//32 44//32 48//32 47//32
f 47//33 48//33 46//33 45//33
f 45//34 46//34 42//34 41//34
f 43//35 47//35 45//35 41//35
f 48//36 44//36 42//36 46//36
f 49//37 50//37 52//37 51//37
f 51//38 52//38 56//38 55//38
f 55//39 56//39 54//39 53//39
f 53//40 54//40 50//40 49//40
f 51//41 55//41 53//41 49//41
f 56//42 52//42 50//42 54//42
usemtl wood
f 57//11 58//11 59//11 60//11
f 63//43 62//43 66//43 67//43
f 57//44 61//44 62//44 58//44
f 58//45 62//45 63//45 59//45
f 59//46 63//46 64//46 60//46
f 61//47 57//47 60//47 64//47
f 67//4 66//4 86//4 87//4
f 61//48 65//48 71//48 69//48
f 64//49 63//49 67//49 68//49
f 61//50 64//50 68//50 65//50
f 69//51 71//51 75//51 73//51
f 66//52 62//52 70//52 72//52
f 65//53 66//53 72//53 71//53
f 62//54 61//54 69//54 70//54
f 75//55 76//55 80//55 79//55
f 71//56 72//56 76//56 75//56
f 72//57 70//57 74//57 76//57
f 70//58 69//58 73//58 74//58
f 80//59 78//59 82//59 84//59
f 76//60 74//60 78//60 80//60
f 74//61 73//61 77//61 78//61
f 73//62 75//62 79//62 77//62
f 82//63 81//63 83//63 84//63
f 78//64 77//64 81//64 82//64
f 77//65 79//65 83//65 81//65
f 79//66 80//66 84//66 83//66
f 87//67 86//67 106//67 107//67
f 66//68 65//68 85//68 86//68
f 68//69 67//69 89//69 90//69
f 65//70 68//70 88//70 85//70
f 89//71 91//71 95//71 93//71
f 88//72 68//72 90//72 92//72
f 67//73 87//73 91//73 89//73
f 87//74 88//74 92//74 91//74
f 96//75 94//75 102//75 104//75
f 90//76 89//76 93//76 94//76
f 92//77 90//77 94//77 96//77
f 96//78 95//78 99//78 100//78
f 97//79 98//79 100//79 99//79
f 91//80 92//80 98//80 97//80
f 95//81 91//81 97//81 99//81
f 92//82 96//82 100//82 98//82
f 102//83 101//83 103//83 104//83
f 95//84 96//84 104//84 103//84
f 93//85 95//85 103//85 101//85
f 94//86 93//86 101//86 102//86
f 108//87 107//87 111//87 112//87
f 86//88 85//88 105//88 106//88
f 88//89 87//89 107//89 108//89
f 85//90 88//90 108//90 105//90
f 109//91 112//91 111//91 110//91
f 105//92 108//92 112//92 109//92
f 107//93 106//93 110//93 111//93
f 106//94 105//94 109//94 110//94
